<svg width="123" height="21" viewBox="0 0 123 21" fill="none" xmlns="http://www.w3.org/2000/svg">
<path d="M67.9184 13.3201C67.6594 13.5711 67.5404 13.9341 67.5994 14.2901L68.4884 19.2101C68.5634 19.6271 68.3874 20.0491 68.0384 20.2901C67.6964 20.5401 67.2414 20.5701 66.8684 20.3701L62.4394 18.0601C62.2854 17.9781 62.1144 17.9341 61.9394 17.9291H61.6684C61.5744 17.9431 61.4824 17.9731 61.3984 18.0191L56.9684 20.3401C56.7494 20.4501 56.5014 20.4891 56.2584 20.4501C55.6664 20.3381 55.2714 19.7741 55.3684 19.1791L56.2584 14.2591C56.3174 13.9001 56.1984 13.5351 55.9394 13.2801L52.3284 9.78012C52.0264 9.48712 51.9214 9.04712 52.0594 8.65012C52.1934 8.25412 52.5354 7.96512 52.9484 7.90012L57.9184 7.17912C58.2964 7.14012 58.6284 6.91012 58.7984 6.57012L60.9884 2.08012C61.0404 1.98012 61.1074 1.88812 61.1884 1.81012L61.2784 1.74012C61.3254 1.68812 61.3794 1.64512 61.4394 1.61012L61.5484 1.57012L61.7184 1.50012H62.1394C62.5154 1.53912 62.8464 1.76412 63.0194 2.10012L65.2384 6.57012C65.3984 6.89712 65.7094 7.12412 66.0684 7.17912L71.0384 7.90012C71.4584 7.96012 71.8094 8.25012 71.9484 8.65012C72.0794 9.05112 71.9664 9.49112 71.6584 9.78012L67.9184 13.3201Z" fill="#FFE601"/>
<path d="M67.9184 13.3201C67.6594 13.5711 67.5404 13.9341 67.5994 14.2901L68.4884 19.2101C68.5634 19.6271 68.3874 20.0491 68.0384 20.2901C67.6964 20.5401 67.2414 20.5701 66.8684 20.3701L62.4394 18.0601C62.2854 17.9781 62.1144 17.9341 61.9394 17.9291H61.6684C61.5744 17.9431 61.4824 17.9731 61.3984 18.0191L56.9684 20.3401C56.7494 20.4501 56.5014 20.4891 56.2584 20.4501C55.6664 20.3381 55.2714 19.7741 55.3684 19.1791L56.2584 14.2591C56.3174 13.9001 56.1984 13.5351 55.9394 13.2801L52.3284 9.78012C52.0264 9.48712 51.9214 9.04712 52.0594 8.65012C52.1934 8.25412 52.5354 7.96512 52.9484 7.90012L57.9184 7.17912C58.2964 7.14012 58.6284 6.91012 58.7984 6.57012L60.9884 2.08012C61.0404 1.98012 61.1074 1.88812 61.1884 1.81012L61.2784 1.74012C61.3254 1.68812 61.3794 1.64512 61.4394 1.61012L61.5484 1.57012L61.7184 1.50012H62.1394C62.5154 1.53912 62.8464 1.76412 63.0194 2.10012L65.2384 6.57012C65.3984 6.89712 65.7094 7.12412 66.0684 7.17912L71.0384 7.90012C71.4584 7.96012 71.8094 8.25012 71.9484 8.65012C72.0794 9.05112 71.9664 9.49112 71.6584 9.78012L67.9184 13.3201Z" fill="#FFE601"/>
<path d="M67.9184 13.3201C67.6594 13.5711 67.5404 13.9341 67.5994 14.2901L68.4884 19.2101C68.5634 19.6271 68.3874 20.0491 68.0384 20.2901C67.6964 20.5401 67.2414 20.5701 66.8684 20.3701L62.4394 18.0601C62.2854 17.9781 62.1144 17.9341 61.9394 17.9291H61.6684C61.5744 17.9431 61.4824 17.9731 61.3984 18.0191L56.9684 20.3401C56.7494 20.4501 56.5014 20.4891 56.2584 20.4501C55.6664 20.3381 55.2714 19.7741 55.3684 19.1791L56.2584 14.2591C56.3174 13.9001 56.1984 13.5351 55.9394 13.2801L52.3284 9.78012C52.0264 9.48712 51.9214 9.04712 52.0594 8.65012C52.1934 8.25412 52.5354 7.96512 52.9484 7.90012L57.9184 7.17912C58.2964 7.14012 58.6284 6.91012 58.7984 6.57012L60.9884 2.08012C61.0404 1.98012 61.1074 1.88812 61.1884 1.81012L61.2784 1.74012C61.3254 1.68812 61.3794 1.64512 61.4394 1.61012L61.5484 1.57012L61.7184 1.50012H62.1394C62.5154 1.53912 62.8464 1.76412 63.0194 2.10012L65.2384 6.57012C65.3984 6.89712 65.7094 7.12412 66.0684 7.17912L71.0384 7.90012C71.4584 7.96012 71.8094 8.25012 71.9484 8.65012C72.0794 9.05112 71.9664 9.49112 71.6584 9.78012L67.9184 13.3201Z" fill="#FFE601"/>
<path d="M67.9184 13.3201C67.6594 13.5711 67.5404 13.9341 67.5994 14.2901L68.4884 19.2101C68.5634 19.6271 68.3874 20.0491 68.0384 20.2901C67.6964 20.5401 67.2414 20.5701 66.8684 20.3701L62.4394 18.0601C62.2854 17.9781 62.1144 17.9341 61.9394 17.9291H61.6684C61.5744 17.9431 61.4824 17.9731 61.3984 18.0191L56.9684 20.3401C56.7494 20.4501 56.5014 20.4891 56.2584 20.4501C55.6664 20.3381 55.2714 19.7741 55.3684 19.1791L56.2584 14.2591C56.3174 13.9001 56.1984 13.5351 55.9394 13.2801L52.3284 9.78012C52.0264 9.48712 51.9214 9.04712 52.0594 8.65012C52.1934 8.25412 52.5354 7.96512 52.9484 7.90012L57.9184 7.17912C58.2964 7.14012 58.6284 6.91012 58.7984 6.57012L60.9884 2.08012C61.0404 1.98012 61.1074 1.88812 61.1884 1.81012L61.2784 1.74012C61.3254 1.68812 61.3794 1.64512 61.4394 1.61012L61.5484 1.57012L61.7184 1.50012H62.1394C62.5154 1.53912 62.8464 1.76412 63.0194 2.10012L65.2384 6.57012C65.3984 6.89712 65.7094 7.12412 66.0684 7.17912L71.0384 7.90012C71.4584 7.96012 71.8094 8.25012 71.9484 8.65012C72.0794 9.05112 71.9664 9.49112 71.6584 9.78012L67.9184 13.3201Z" fill="#FFE601"/>
<path d="M67.9184 13.3201C67.6594 13.5711 67.5404 13.9341 67.5994 14.2901L68.4884 19.2101C68.5634 19.6271 68.3874 20.0491 68.0384 20.2901C67.6964 20.5401 67.2414 20.5701 66.8684 20.3701L62.4394 18.0601C62.2854 17.9781 62.1144 17.9341 61.9394 17.9291H61.6684C61.5744 17.9431 61.4824 17.9731 61.3984 18.0191L56.9684 20.3401C56.7494 20.4501 56.5014 20.4891 56.2584 20.4501C55.6664 20.3381 55.2714 19.7741 55.3684 19.1791L56.2584 14.2591C56.3174 13.9001 56.1984 13.5351 55.9394 13.2801L52.3284 9.78012C52.0264 9.48712 51.9214 9.04712 52.0594 8.65012C52.1934 8.25412 52.5354 7.96512 52.9484 7.90012L57.9184 7.17912C58.2964 7.14012 58.6284 6.91012 58.7984 6.57012L60.9884 2.08012C61.0404 1.98012 61.1074 1.88812 61.1884 1.81012L61.2784 1.74012C61.3254 1.68812 61.3794 1.64512 61.4394 1.61012L61.5484 1.57012L61.7184 1.50012H62.1394C62.5154 1.53912 62.8464 1.76412 63.0194 2.10012L65.2384 6.57012C65.3984 6.89712 65.7094 7.12412 66.0684 7.17912L71.0384 7.90012C71.4584 7.96012 71.8094 8.25012 71.9484 8.65012C72.0794 9.05112 71.9664 9.49112 71.6584 9.78012L67.9184 13.3201Z" fill="#FFE601"/>
<path d="M67.9184 13.3201C67.6594 13.5711 67.5404 13.9341 67.5994 14.2901L68.4884 19.2101C68.5634 19.6271 68.3874 20.0491 68.0384 20.2901C67.6964 20.5401 67.2414 20.5701 66.8684 20.3701L62.4394 18.0601C62.2854 17.9781 62.1144 17.9341 61.9394 17.9291H61.6684C61.5744 17.9431 61.4824 17.9731 61.3984 18.0191L56.9684 20.3401C56.7494 20.4501 56.5014 20.4891 56.2584 20.4501C55.6664 20.3381 55.2714 19.7741 55.3684 19.1791L56.2584 14.2591C56.3174 13.9001 56.1984 13.5351 55.9394 13.2801L52.3284 9.78012C52.0264 9.48712 51.9214 9.04712 52.0594 8.65012C52.1934 8.25412 52.5354 7.96512 52.9484 7.90012L57.9184 7.17912C58.2964 7.14012 58.6284 6.91012 58.7984 6.57012L60.9884 2.08012C61.0404 1.98012 61.1074 1.88812 61.1884 1.81012L61.2784 1.74012C61.3254 1.68812 61.3794 1.64512 61.4394 1.61012L61.5484 1.57012L61.7184 1.50012H62.1394C62.5154 1.53912 62.8464 1.76412 63.0194 2.10012L65.2384 6.57012C65.3984 6.89712 65.7094 7.12412 66.0684 7.17912L71.0384 7.90012C71.4584 7.96012 71.8094 8.25012 71.9484 8.65012C72.0794 9.05112 71.9664 9.49112 71.6584 9.78012L67.9184 13.3201Z" fill="#FFE601"/>
<path d="M67.9184 13.3201C67.6594 13.5711 67.5404 13.9341 67.5994 14.2901L68.4884 19.2101C68.5634 19.6271 68.3874 20.0491 68.0384 20.2901C67.6964 20.5401 67.2414 20.5701 66.8684 20.3701L62.4394 18.0601C62.2854 17.9781 62.1144 17.9341 61.9394 17.9291H61.6684C61.5744 17.9431 61.4824 17.9731 61.3984 18.0191L56.9684 20.3401C56.7494 20.4501 56.5014 20.4891 56.2584 20.4501C55.6664 20.3381 55.2714 19.7741 55.3684 19.1791L56.2584 14.2591C56.3174 13.9001 56.1984 13.5351 55.9394 13.2801L52.3284 9.78012C52.0264 9.48712 51.9214 9.04712 52.0594 8.65012C52.1934 8.25412 52.5354 7.96512 52.9484 7.90012L57.9184 7.17912C58.2964 7.14012 58.6284 6.91012 58.7984 6.57012L60.9884 2.08012C61.0404 1.98012 61.1074 1.88812 61.1884 1.81012L61.2784 1.74012C61.3254 1.68812 61.3794 1.64512 61.4394 1.61012L61.5484 1.57012L61.7184 1.50012H62.1394C62.5154 1.53912 62.8464 1.76412 63.0194 2.10012L65.2384 6.57012C65.3984 6.89712 65.7094 7.12412 66.0684 7.17912L71.0384 7.90012C71.4584 7.96012 71.8094 8.25012 71.9484 8.65012C72.0794 9.05112 71.9664 9.49112 71.6584 9.78012L67.9184 13.3201Z" fill="#FFE601"/>
<path d="M67.9184 13.3201C67.6594 13.5711 67.5404 13.9341 67.5994 14.2901L68.4884 19.2101C68.5634 19.6271 68.3874 20.0491 68.0384 20.2901C67.6964 20.5401 67.2414 20.5701 66.8684 20.3701L62.4394 18.0601C62.2854 17.9781 62.1144 17.9341 61.9394 17.9291H61.6684C61.5744 17.9431 61.4824 17.9731 61.3984 18.0191L56.9684 20.3401C56.7494 20.4501 56.5014 20.4891 56.2584 20.4501C55.6664 20.3381 55.2714 19.7741 55.3684 19.1791L56.2584 14.2591C56.3174 13.9001 56.1984 13.5351 55.9394 13.2801L52.3284 9.78012C52.0264 9.48712 51.9214 9.04712 52.0594 8.65012C52.1934 8.25412 52.5354 7.96512 52.9484 7.90012L57.9184 7.17912C58.2964 7.14012 58.6284 6.91012 58.7984 6.57012L60.9884 2.08012C61.0404 1.98012 61.1074 1.88812 61.1884 1.81012L61.2784 1.74012C61.3254 1.68812 61.3794 1.64512 61.4394 1.61012L61.5484 1.57012L61.7184 1.50012H62.1394C62.5154 1.53912 62.8464 1.76412 63.0194 2.10012L65.2384 6.57012C65.3984 6.89712 65.7094 7.12412 66.0684 7.17912L71.0384 7.90012C71.4584 7.96012 71.8094 8.25012 71.9484 8.65012C72.0794 9.05112 71.9664 9.49112 71.6584 9.78012L67.9184 13.3201Z" fill="#FFE601"/>
<path d="M67.9184 13.3201C67.6594 13.5711 67.5404 13.9341 67.5994 14.2901L68.4884 19.2101C68.5634 19.6271 68.3874 20.0491 68.0384 20.2901C67.6964 20.5401 67.2414 20.5701 66.8684 20.3701L62.4394 18.0601C62.2854 17.9781 62.1144 17.9341 61.9394 17.9291H61.6684C61.5744 17.9431 61.4824 17.9731 61.3984 18.0191L56.9684 20.3401C56.7494 20.4501 56.5014 20.4891 56.2584 20.4501C55.6664 20.3381 55.2714 19.7741 55.3684 19.1791L56.2584 14.2591C56.3174 13.9001 56.1984 13.5351 55.9394 13.2801L52.3284 9.78012C52.0264 9.48712 51.9214 9.04712 52.0594 8.65012C52.1934 8.25412 52.5354 7.96512 52.9484 7.90012L57.9184 7.17912C58.2964 7.14012 58.6284 6.91012 58.7984 6.57012L60.9884 2.08012C61.0404 1.98012 61.1074 1.88812 61.1884 1.81012L61.2784 1.74012C61.3254 1.68812 61.3794 1.64512 61.4394 1.61012L61.5484 1.57012L61.7184 1.50012H62.1394C62.5154 1.53912 62.8464 1.76412 63.0194 2.10012L65.2384 6.57012C65.3984 6.89712 65.7094 7.12412 66.0684 7.17912L71.0384 7.90012C71.4584 7.96012 71.8094 8.25012 71.9484 8.65012C72.0794 9.05112 71.9664 9.49112 71.6584 9.78012L67.9184 13.3201Z" fill="#FFE601"/>
<path d="M67.9184 13.3201C67.6594 13.5711 67.5404 13.9341 67.5994 14.2901L68.4884 19.2101C68.5634 19.6271 68.3874 20.0491 68.0384 20.2901C67.6964 20.5401 67.2414 20.5701 66.8684 20.3701L62.4394 18.0601C62.2854 17.9781 62.1144 17.9341 61.9394 17.9291H61.6684C61.5744 17.9431 61.4824 17.9731 61.3984 18.0191L56.9684 20.3401C56.7494 20.4501 56.5014 20.4891 56.2584 20.4501C55.6664 20.3381 55.2714 19.7741 55.3684 19.1791L56.2584 14.2591C56.3174 13.9001 56.1984 13.5351 55.9394 13.2801L52.3284 9.78012C52.0264 9.48712 51.9214 9.04712 52.0594 8.65012C52.1934 8.25412 52.5354 7.96512 52.9484 7.90012L57.9184 7.17912C58.2964 7.14012 58.6284 6.91012 58.7984 6.57012L60.9884 2.08012C61.0404 1.98012 61.1074 1.88812 61.1884 1.81012L61.2784 1.74012C61.3254 1.68812 61.3794 1.64512 61.4394 1.61012L61.5484 1.57012L61.7184 1.50012H62.1394C62.5154 1.53912 62.8464 1.76412 63.0194 2.10012L65.2384 6.57012C65.3984 6.89712 65.7094 7.12412 66.0684 7.17912L71.0384 7.90012C71.4584 7.96012 71.8094 8.25012 71.9484 8.65012C72.0794 9.05112 71.9664 9.49112 71.6584 9.78012L67.9184 13.3201Z" fill="#FFE601"/>
<path d="M41.9189 12.82C41.6599 13.071 41.5409 13.434 41.5999 13.79L42.4889 18.71C42.5639 19.127 42.3879 19.549 42.0389 19.79C41.6969 20.04 41.2419 20.07 40.8689 19.87L36.4399 17.56C36.2859 17.478 36.1149 17.434 35.9399 17.429H35.6689C35.5749 17.443 35.4829 17.473 35.3989 17.519L30.9689 19.84C30.7499 19.95 30.5019 19.989 30.2589 19.95C29.6669 19.838 29.2719 19.274 29.3689 18.679L30.2589 13.759C30.3179 13.4 30.1989 13.035 29.9399 12.78L26.3289 9.28C26.0269 8.987 25.9219 8.547 26.0599 8.15C26.1939 7.754 26.5359 7.465 26.9489 7.4L31.9189 6.679C32.2969 6.64 32.6289 6.41 32.7989 6.07L34.9889 1.58C35.0409 1.48 35.1079 1.388 35.1889 1.31L35.2789 1.24C35.3259 1.188 35.3799 1.145 35.4399 1.11L35.5489 1.07L35.7189 1H36.1399C36.5159 1.039 36.8469 1.264 37.0199 1.6L39.2389 6.07C39.3989 6.397 39.7099 6.624 40.0689 6.679L45.0389 7.4C45.4589 7.46 45.8099 7.75 45.9489 8.15C46.0799 8.551 45.9669 8.991 45.6589 9.28L41.9189 12.82Z" fill="#FFE601"/>
<path d="M15.9194 12.3199C15.6604 12.5709 15.5414 12.9339 15.6004 13.2899L16.4894 18.2099C16.5644 18.6269 16.3884 19.0489 16.0394 19.2899C15.6974 19.5399 15.2424 19.5699 14.8694 19.3699L10.4404 17.0599C10.2864 16.9779 10.1154 16.9339 9.94036 16.9289H9.66936C9.57536 16.9429 9.48336 16.9729 9.39936 17.0189L4.96936 19.3399C4.75036 19.4499 4.50236 19.4889 4.25936 19.4499C3.66736 19.3379 3.27236 18.7739 3.36936 18.1789L4.25936 13.2589C4.31836 12.8999 4.19936 12.5349 3.94036 12.2799L0.329364 8.77988C0.0273641 8.48688 -0.0776359 8.04688 0.0603641 7.64988C0.194364 7.25388 0.536364 6.96488 0.949364 6.89988L5.91936 6.17888C6.29736 6.13988 6.62936 5.90988 6.79936 5.56988L8.98936 1.07988C9.04136 0.979878 9.10836 0.887878 9.18936 0.809878L9.27936 0.739878C9.32636 0.687878 9.38036 0.644878 9.44036 0.609878L9.54936 0.569878L9.71936 0.499878H10.1404C10.5164 0.538878 10.8474 0.763878 11.0204 1.09988L13.2394 5.56988C13.3994 5.89688 13.7104 6.12388 14.0694 6.17888L19.0394 6.89988C19.4594 6.95988 19.8104 7.24988 19.9494 7.64988C20.0804 8.05088 19.9674 8.49088 19.6594 8.77988L15.9194 12.3199Z" fill="#FFE601"/>
<path d="M92.9189 12.82C92.6599 13.071 92.5409 13.434 92.5999 13.79L93.4889 18.71C93.5639 19.127 93.3879 19.549 93.0389 19.79C92.6969 20.04 92.2419 20.07 91.8689 19.87L87.4399 17.56C87.2859 17.478 87.1149 17.434 86.9399 17.429H86.6689C86.5749 17.443 86.4829 17.473 86.3989 17.519L81.9689 19.84C81.7499 19.95 81.5019 19.989 81.2589 19.95C80.6669 19.838 80.2719 19.274 80.3689 18.679L81.2589 13.759C81.3179 13.4 81.1989 13.035 80.9399 12.78L77.3289 9.28C77.0269 8.987 76.9219 8.547 77.0599 8.15C77.1939 7.754 77.5359 7.465 77.9489 7.4L82.9189 6.679C83.2969 6.64 83.6289 6.41 83.7989 6.07L85.9889 1.58C86.0409 1.48 86.1079 1.388 86.1889 1.31L86.2789 1.24C86.3259 1.188 86.3799 1.145 86.4399 1.11L86.5489 1.07L86.7189 1H87.1399C87.5159 1.039 87.8469 1.264 88.0199 1.6L90.2389 6.07C90.3989 6.397 90.7099 6.624 91.0689 6.679L96.0389 7.4C96.4589 7.46 96.8099 7.75 96.9489 8.15C97.0799 8.551 96.9669 8.991 96.6589 9.28L92.9189 12.82Z" fill="#FFE601"/>
<path d="M118.919 13.82C118.66 14.071 118.541 14.434 118.6 14.79L119.489 19.71C119.564 20.127 119.388 20.549 119.039 20.79C118.697 21.04 118.242 21.07 117.869 20.87L113.44 18.56C113.286 18.478 113.115 18.434 112.94 18.429H112.669C112.575 18.443 112.483 18.473 112.399 18.519L107.969 20.84C107.75 20.95 107.502 20.989 107.259 20.95C106.667 20.838 106.272 20.274 106.369 19.679L107.259 14.759C107.318 14.4 107.199 14.035 106.94 13.78L103.329 10.28C103.027 9.987 102.922 9.547 103.06 9.15C103.194 8.754 103.536 8.465 103.949 8.4L108.919 7.679C109.297 7.64 109.629 7.41 109.799 7.07L111.989 2.58C112.041 2.48 112.108 2.388 112.189 2.31L112.279 2.24C112.326 2.188 112.38 2.145 112.44 2.11L112.549 2.07L112.719 2H113.14C113.516 2.039 113.847 2.264 114.02 2.6L116.239 7.07C116.399 7.397 116.71 7.624 117.069 7.679L122.039 8.4C122.459 8.46 122.81 8.75 122.949 9.15C123.08 9.551 122.967 9.991 122.659 10.28L118.919 13.82Z" fill="#FFE601"/>
</svg>
